<?xml version="1.0" standalone="no"?>
<svg id="Group27" width="230" height="198" viewBox="0 0 230 198" fill="none" xmlns="http://www.w3.org/2000/svg" style="max-width: 100%; max-height: 100%;">
<path d="M71 137.755C71.3333 136.088 72.6 132.755 75 132.755C76.5 132.422 79.6 132.955 80 137.755C79.5 139.422 77.9 142.655 75.5 142.255C74 141.922 71 140.555 71 137.755ZM71 137.755H40.5C50.1667 129.422 71.1 108.855 77.5 93.2549C81.3333 83.5882 85.5 60.7549 71.5 46.7549C66.5 41.7549 52 32.7549 34 36.7549C26.3333 37.9216 9.8 44.8549 5 63.2549V77.2549H25C25.8333 70.5883 29.8 57.2549 39 57.2549C46.1667 56.7549 60.2 59.7549 59 75.7549C57.8333 80.4216 53 92.3549 43 102.755C31.1667 115.755 6.4 142.455 2 145.255V158.755H54C64.3333 170.255 89.5 193.355 107.5 193.755C126 197.588 170 197.755 198 167.755C211.833 153.588 236.6 116.255 225 80.2549C223.5 69.0883 213.9 41.5549 187.5 20.7549C176 11.5883 144.7 -4.44508 111.5 4.75492C102.833 6.08827 83.2 11.155 74 20.7549M74 20.7549L68.5 14.7549L65.5 30.2549L79 25.7549L74 20.7549Z" stroke="black" stroke-width="3" stroke-linecap="round" stroke-linejoin="round" stroke-dasharray="0,0,0,994.7739868164062"><animate attributeType="XML" attributeName="stroke-dasharray" repeatCount="1" dur="2.5s" values="0,0,0,994.7739868164062; 
          0,497.3869934082031,497.3869934082031,0; 
          994.7739868164062,0,0,0" keyTimes="0; 0.5; 1" fill="freeze"></animate></path>
<path d="M128 55.2547C126 63.088 122.3 79.0547 123.5 80.2547C124.7 81.4547 138.333 80.7547 145 80.2547C145.284 80.4296 145.621 80.6119 146 80.7885M156 79.7547L177 80.2547C176.667 73.7547 175.5 59.8547 173.5 56.2547L169.5 53.2547C171 60.588 173.7 75.4547 172.5 76.2547C168.214 75.1435 159.12 73.4276 155.5 74.9949M156 79.7547C152.872 82.8826 148.511 81.9591 146 80.7885M156 79.7547L155.5 74.9949M133.5 52.2547L131.5 53.7547C130.7 54.9547 129.5 69.2547 129 76.2547C132.847 73.9465 141.627 74.2282 146 74.6979M133.5 52.2547C133.667 50.088 134.4 45.9547 136 46.7547C135.667 44.588 136 40.7547 140 42.7547C139.167 40.4214 138.4 36.5548 142 39.7548C143.167 37.2548 146.5 33.2548 150.5 37.2548C151.5 36.0881 154.1 34.4547 156.5 37.2548C160 37.7548 166.2 39.8549 163 44.2549C165.5 44.2549 169.5 45.355 165.5 49.7549C167.333 50.2549 169.8 52.3549 165 56.7549M133.5 52.2547C134.3 55.4546 140.5 57.2548 143.5 57.7549M165 56.7549C164.652 57.1728 164.105 57.7654 163.5 58.3137M165 56.7549C162.6 57.5549 160.589 55.0881 159.883 53.7547M161 59.7549C161.698 59.7549 162.657 59.0773 163.5 58.3137M163.5 58.3137C164.167 59.7941 165.1 63.0549 163.5 64.2549C162.5 64.2549 160.2 63.8549 159 62.2549C157.667 61.9608 155.3 60.7609 156.5 58.3137C154.833 58.7941 151.5 59.3549 151.5 57.7549C149.5 59.0883 145.1 60.955 143.5 57.7549M143.5 57.7549C141.667 56.0882 138.2 52.3549 139 50.7549M143.5 57.7549C143 56.2548 142.3 53.0546 143.5 52.2547M144.5 45.7549C144.667 44.7548 145.5 42.7547 147.5 42.7547M148 49.2549C148.673 49.793 149.747 50.3365 151 50.4515M157 46.7547C155.092 49.8558 152.851 50.6215 151 50.4515M151 50.4515C150.833 51.5526 150.1 53.7547 148.5 53.7547M155.5 53.2547C156.592 54.483 158.712 55.9125 159.883 53.7547M160.5 51.7549C160.355 52.6244 160.142 53.2773 159.883 53.7547M151 75.7741C152.481 75.7072 153.988 75.4716 155 75.2547C155.152 75.1596 155.319 75.0732 155.5 74.9949M151 75.7741C149.067 75.8613 147.18 75.6608 146.5 74.7547C146.341 74.7356 146.174 74.7166 146 74.6979M151 75.7741V62.7549M146 80.7885V74.6979M132.5 43.2549L128 40.7549M136 35.7549L134 33.7549M143 31.7549L141.5 28.2549M151 29.7549L150.5 27.2549M159 31.7549L160.5 28.2549M165.5 35.7549L167.5 33.7549M169.5 43.2549L173 41.2549" stroke="black" stroke-width="3" stroke-linecap="round" stroke-linejoin="round" stroke-dasharray="0,0,0,417.15924072265625"><animate attributeType="XML" attributeName="stroke-dasharray" repeatCount="1" dur="2.5s" values="0,0,0,417.15924072265625; 
          0,208.57962036132812,208.57962036132812,0; 
          417.15924072265625,0,0,0" keyTimes="0; 0.5; 1" fill="freeze"></animate></path>
</svg>